<svg width="18" height="22" viewBox="0 0 18 22" fill="none" xmlns="http://www.w3.org/2000/svg">
<path d="M1.50004 13.8851H0.75004H1.50004ZM4.23295 17.0834L4.33596 16.3405H4.33596L4.23295 17.0834ZM14.4193 17.0834L14.3163 16.3405H14.3163L14.4193 17.0834ZM1.96651 12.1872L1.32236 11.8031L1.96651 12.1872ZM3.98918 7.08696C3.98918 4.13944 6.37861 1.75 9.32613 1.75V0.25C5.55019 0.25 2.48918 3.31101 2.48918 7.08696H3.98918ZM3.98918 9.17949V7.08696H2.48918V9.17949H3.98918ZM2.25004 13.8851C2.25004 13.4037 2.38175 12.9552 2.61066 12.5714L1.32236 11.8031C0.958741 12.4128 0.75004 13.1257 0.75004 13.8851H2.25004ZM4.33596 16.3405C3.13633 16.1742 2.25004 15.1313 2.25004 13.8851H0.75004C0.75004 15.8448 2.15415 17.5524 4.12994 17.8263L4.33596 16.3405ZM9.32613 16.772C7.83415 16.772 5.90656 16.5583 4.33596 16.3405L4.12994 17.8263C5.71272 18.0458 7.72541 18.272 9.32613 18.272V16.772ZM14.3163 16.3405C12.7457 16.5583 10.8181 16.772 9.32613 16.772V18.272C10.9268 18.272 12.9395 18.0458 14.5223 17.8263L14.3163 16.3405ZM16.4022 13.8851C16.4022 15.1313 15.5159 16.1742 14.3163 16.3405L14.5223 17.8263C16.4981 17.5524 17.9022 15.8448 17.9022 13.8851H16.4022ZM16.0416 12.5714C16.2705 12.9552 16.4022 13.4037 16.4022 13.8851H17.9022C17.9022 13.1257 17.6935 12.4128 17.3299 11.8031L16.0416 12.5714ZM14.6631 7.08696V9.17951H16.1631V7.08696H14.6631ZM9.32613 1.75C12.2737 1.75 14.6631 4.13944 14.6631 7.08696H16.1631C16.1631 3.31101 13.1021 0.25 9.32613 0.25V1.75ZM17.3299 11.8031C17.021 11.2851 16.7405 10.8701 16.5091 10.4066C16.2876 9.96289 16.1631 9.567 16.1631 9.17951H14.6631C14.6631 9.89235 14.8931 10.5278 15.167 11.0766C15.4311 11.6056 15.7869 12.1443 16.0416 12.5714L17.3299 11.8031ZM2.48918 9.17949C2.48918 9.56698 2.36466 9.96287 2.14315 10.4066C1.9118 10.8701 1.63125 11.2851 1.32236 11.8031L2.61066 12.5714C2.86535 12.1443 3.22114 11.6056 3.48523 11.0766C3.75916 10.5278 3.98918 9.89234 3.98918 9.17949H2.48918Z" fill="#212121"/>
<path d="M11.5 19.834C11.0326 20.5369 10.2335 21.0002 9.32609 21.0002C8.41871 21.0002 7.61954 20.5369 7.15218 19.834" stroke="#212121" stroke-width="1.5" stroke-linecap="round"/>
</svg>
