<svg width="25" height="24" viewBox="0 0 25 24" fill="none" xmlns="http://www.w3.org/2000/svg">
<path d="M4.50001 14.8851H3.75001H4.50001ZM7.23293 18.0834L7.33594 17.3405H7.33594L7.23293 18.0834ZM17.4193 18.0834L17.3163 17.3405H17.3163L17.4193 18.0834ZM4.96648 13.1872L4.32233 12.8031L4.96648 13.1872ZM6.98915 8.08696C6.98915 5.13944 9.37859 2.75 12.3261 2.75V1.25C8.55016 1.25 5.48915 4.31101 5.48915 8.08696H6.98915ZM6.98915 10.1795V8.08696H5.48915V10.1795H6.98915ZM5.25001 14.8851C5.25001 14.4037 5.38172 13.9552 5.61063 13.5714L4.32233 12.8031C3.95871 13.4128 3.75001 14.1257 3.75001 14.8851H5.25001ZM7.33594 17.3405C6.1363 17.1742 5.25001 16.1313 5.25001 14.8851H3.75001C3.75001 16.8448 5.15413 18.5524 7.12991 18.8263L7.33594 17.3405ZM12.3261 17.772C10.8341 17.772 8.90653 17.5583 7.33594 17.3405L7.12991 18.8263C8.71269 19.0458 10.7254 19.272 12.3261 19.272V17.772ZM17.3163 17.3405C15.7457 17.5583 13.8181 17.772 12.3261 17.772V19.272C13.9268 19.272 15.9395 19.0458 17.5223 18.8263L17.3163 17.3405ZM19.4022 14.8851C19.4022 16.1313 18.5159 17.1742 17.3163 17.3405L17.5223 18.8263C19.4981 18.5524 20.9022 16.8448 20.9022 14.8851H19.4022ZM19.0416 13.5714C19.2705 13.9552 19.4022 14.4037 19.4022 14.8851H20.9022C20.9022 14.1257 20.6935 13.4128 20.3299 12.8031L19.0416 13.5714ZM17.6631 8.08696V10.1795H19.1631V8.08696H17.6631ZM12.3261 2.75C15.2736 2.75 17.6631 5.13944 17.6631 8.08696H19.1631C19.1631 4.31101 16.1021 1.25 12.3261 1.25V2.75ZM20.3299 12.8031C20.021 12.2851 19.7404 11.8701 19.5091 11.4066C19.2876 10.9629 19.1631 10.567 19.1631 10.1795H17.6631C17.6631 10.8924 17.8931 11.5278 18.167 12.0766C18.4311 12.6056 18.7869 13.1443 19.0416 13.5714L20.3299 12.8031ZM5.48915 10.1795C5.48915 10.567 5.36463 10.9629 5.14312 11.4066C4.91177 11.8701 4.63122 12.2851 4.32233 12.8031L5.61063 13.5714C5.86533 13.1443 6.22111 12.6056 6.48521 12.0766C6.75913 11.5278 6.98915 10.8923 6.98915 10.1795H5.48915Z" fill="#717171"/>
<path d="M14.5 20.834C14.0326 21.5369 13.2335 22.0002 12.3261 22.0002C11.4187 22.0002 10.6195 21.5369 10.1522 20.834" stroke="#717171" stroke-width="1.5" stroke-linecap="round"/>
</svg>
