<svg width="21" height="22" viewBox="0 0 21 22" fill="none" xmlns="http://www.w3.org/2000/svg">
<circle cx="3" cy="3" r="3" transform="matrix(-1 0 0 1 13.5 8)" stroke="#212121" stroke-width="1.5"/>
<path d="M15.0001 3.9375L15.3751 3.28798L15.3751 3.28798L15.0001 3.9375ZM15 18.0621L14.625 17.4126L14.625 17.4126L15 18.0621ZM5.99999 18.0621L5.62499 18.7117L5.62499 18.7117L5.99999 18.0621ZM5.99999 3.9375L6.37499 4.58702L6.37499 4.58702L5.99999 3.9375ZM7.42293 2.01508L8.15362 2.18415L7.42293 2.01508ZM8.03914 1.30504L7.85515 0.577959L8.03914 1.30504ZM1.40639 8.68351L0.929471 9.26235L1.40639 8.68351ZM3.81183 17.7402L3.63965 17.0102L3.81183 17.7402ZM2.90294 17.503L2.33341 17.991L2.90294 17.503ZM8.03921 20.695L8.22319 19.9679L8.03921 20.695ZM7.42299 19.9848L8.1537 19.8158L7.42299 19.9848ZM13.577 19.9848L14.3077 20.1538L13.577 19.9848ZM12.9608 20.695L12.7768 19.9679L12.9608 20.695ZM18.097 17.503L17.5274 17.015L18.097 17.503ZM17.1881 17.7402L17.0159 18.4702L17.1881 17.7402ZM19.9437 7.70289L20.6517 7.45569L19.9437 7.70289ZM19.5935 8.68352L19.1166 8.10469L19.5935 8.68352ZM1.40639 13.3165L0.92947 12.7376L1.40639 13.3165ZM17.1879 4.2595L17.0158 3.52952L17.1879 4.2595ZM18.0967 4.49671L18.6662 4.00871L18.0967 4.49671ZM2.90321 4.49667L2.3337 4.00867L2.90321 4.49667ZM19.5935 13.3165L20.0704 12.7376L19.5935 13.3165ZM19.9437 14.2971L19.2356 14.0499L19.9437 14.2971ZM13.5771 2.01511L14.3078 1.84603L13.5771 2.01511ZM12.8464 2.18418C13.0722 3.16005 13.6878 4.04592 14.6251 4.58702L15.3751 3.28798C14.8127 2.96329 14.4438 2.43381 14.3078 1.84603L12.8464 2.18418ZM14.6251 4.58702C15.486 5.08408 16.4638 5.2008 17.3601 4.98949L17.0158 3.52952C16.4767 3.65663 15.8921 3.5865 15.3751 3.28798L14.6251 4.58702ZM20.6517 7.45569C20.2062 6.17937 19.5271 5.01337 18.6662 4.00871L17.5272 4.98471C18.2687 5.85004 18.8527 6.85328 19.2356 7.95008L20.6517 7.45569ZM19.2499 11C19.2499 10.3006 19.5681 9.67623 20.0704 9.26236L19.1166 8.10469C18.2833 8.79128 17.7499 9.83367 17.7499 11H19.2499ZM20.0704 12.7376C19.5681 12.3238 19.2499 11.6994 19.2499 11H17.7499C17.7499 12.1663 18.2833 13.2087 19.1166 13.8953L20.0704 12.7376ZM18.6665 17.991C19.5272 16.9864 20.2062 15.8205 20.6517 14.5443L19.2356 14.0499C18.8527 15.1466 18.2688 16.1498 17.5274 17.015L18.6665 17.991ZM15.375 18.7117C15.8921 18.4131 16.4767 18.343 17.0159 18.4702L17.3603 17.0102C16.4639 16.7988 15.486 16.9155 14.625 17.4126L15.375 18.7117ZM14.3077 20.1538C14.4437 19.566 14.8126 19.0364 15.375 18.7117L14.625 17.4126C13.6877 17.9538 13.072 18.8398 12.8463 19.8158L14.3077 20.1538ZM10.5 21.75C11.4117 21.75 12.2979 21.6363 13.1448 21.422L12.7768 19.9679C12.0492 20.152 11.2866 20.25 10.5 20.25V21.75ZM7.85524 21.4221C8.7021 21.6363 9.58829 21.75 10.5 21.75V20.25C9.71337 20.25 8.95075 20.152 8.22319 19.9679L7.85524 21.4221ZM5.62499 18.7117C6.18743 19.0364 6.55631 19.566 6.69227 20.1538L8.1537 19.8158C7.92796 18.8398 7.31232 17.9538 6.37499 17.4126L5.62499 18.7117ZM3.984 18.4702C4.52321 18.343 5.10787 18.4131 5.62499 18.7117L6.37499 17.4126C5.51395 16.9155 4.536 16.7988 3.63965 17.0102L3.984 18.4702ZM0.348159 14.5443C0.793684 15.8205 1.47267 16.9864 2.33341 17.991L3.47248 17.015C2.73112 16.1498 2.1472 15.1466 1.76434 14.0499L0.348159 14.5443ZM1.74998 11C1.74998 11.6994 1.43179 12.3238 0.92947 12.7376L1.8833 13.8953C2.71662 13.2087 3.24998 12.1663 3.24998 11H1.74998ZM0.929471 9.26235C1.43179 9.67622 1.74998 10.3006 1.74998 11H3.24998C3.24998 9.83366 2.71662 8.79126 1.8833 8.10468L0.929471 9.26235ZM2.3337 4.00867C1.47282 5.01334 0.793735 6.17934 0.348161 7.45567L1.76434 7.95007C2.14724 6.85326 2.73126 5.85001 3.47273 4.98468L2.3337 4.00867ZM5.62499 3.28798C5.10792 3.58651 4.52331 3.65664 3.98414 3.5295L3.63988 4.98946C4.53617 5.20081 5.51403 5.0841 6.37499 4.58702L5.62499 3.28798ZM6.69223 1.84601C6.55623 2.43379 6.18737 2.96329 5.62499 3.28798L6.37499 4.58702C7.31221 4.04591 7.92782 3.16003 8.15362 2.18415L6.69223 1.84601ZM10.5 0.25C9.58826 0.25 8.70204 0.36366 7.85515 0.577959L8.22312 2.03213C8.95071 1.84802 9.71335 1.75 10.5 1.75V0.25ZM13.1449 0.578005C12.298 0.363676 11.4117 0.25 10.5 0.25V1.75C11.2866 1.75 12.0493 1.84803 12.7769 2.03217L13.1449 0.578005ZM8.15362 2.18415C8.16923 2.11668 8.19568 2.06909 8.2162 2.04413C8.23383 2.02269 8.23697 2.02862 8.22312 2.03213L7.85515 0.577959C7.16395 0.752863 6.80705 1.3498 6.69223 1.84601L8.15362 2.18415ZM1.8833 8.10468C1.82242 8.05451 1.78703 8.00024 1.77283 7.96394C1.76089 7.93341 1.76968 7.93478 1.76434 7.95007L0.348161 7.45567C0.0821472 8.21766 0.494302 8.9038 0.929471 9.26235L1.8833 8.10468ZM3.63965 17.0102C3.57242 17.0261 3.51815 17.0235 3.48669 17.0162C3.45963 17.0099 3.46335 17.0044 3.47248 17.015L2.33341 17.991C2.79646 18.5314 3.48843 18.5871 3.984 18.4702L3.63965 17.0102ZM8.22319 19.9679C8.23705 19.9714 8.2339 19.9773 8.21628 19.9559C8.19575 19.9309 8.1693 19.8833 8.1537 19.8158L6.69227 20.1538C6.80705 20.6501 7.16396 21.2471 7.85524 21.4221L8.22319 19.9679ZM12.8463 19.8158C12.8307 19.8833 12.8042 19.9309 12.7837 19.9559C12.7661 19.9773 12.763 19.9714 12.7768 19.9679L13.1448 21.422C13.836 21.2471 14.1929 20.6501 14.3077 20.1538L12.8463 19.8158ZM17.5274 17.015C17.5366 17.0044 17.5403 17.0099 17.5132 17.0162C17.4818 17.0235 17.4275 17.0261 17.3603 17.0102L17.0159 18.4702C17.5115 18.5871 18.2035 18.5314 18.6665 17.991L17.5274 17.015ZM19.2356 7.95008C19.2302 7.93479 19.239 7.93343 19.2271 7.96395C19.2129 8.00025 19.1775 8.05453 19.1166 8.10469L20.0704 9.26236C20.5056 8.90381 20.9178 8.21767 20.6517 7.45569L19.2356 7.95008ZM1.76434 14.0499C1.76968 14.0652 1.76089 14.0666 1.77283 14.0361C1.78703 13.9998 1.82242 13.9455 1.8833 13.8953L0.92947 12.7376C0.494301 13.0962 0.0821462 13.7823 0.348159 14.5443L1.76434 14.0499ZM17.3601 4.98949C17.4273 4.97364 17.4815 4.97624 17.513 4.98357C17.54 4.98987 17.5363 4.99537 17.5272 4.98471L18.6662 4.00871C18.2032 3.46835 17.5114 3.41269 17.0158 3.52952L17.3601 4.98949ZM3.47273 4.98468C3.4636 4.99534 3.45988 4.98984 3.48693 4.98354C3.51839 4.97621 3.57265 4.97361 3.63988 4.98946L3.98414 3.5295C3.48861 3.41265 2.79672 3.4683 2.3337 4.00867L3.47273 4.98468ZM19.1166 13.8953C19.1775 13.9455 19.2129 13.9997 19.2271 14.036C19.239 14.0666 19.2302 14.0652 19.2356 14.0499L20.6517 14.5443C20.9178 13.7823 20.5056 13.0962 20.0704 12.7376L19.1166 13.8953ZM14.3078 1.84603C14.193 1.34983 13.8361 0.752915 13.1449 0.578005L12.7769 2.03217C12.7631 2.02866 12.7662 2.02273 12.7839 2.04417C12.8044 2.06913 12.8308 2.11672 12.8464 2.18418L14.3078 1.84603Z" fill="#212121"/>
</svg>
