<svg width="25" height="24" viewBox="0 0 25 24" fill="none" xmlns="http://www.w3.org/2000/svg">
<circle cx="3" cy="3" r="3" transform="matrix(-1 0 0 1 15.5 9)" stroke="#717171" stroke-width="1.5"/>
<path d="M17.0001 4.9375L17.3751 4.28798L17.3751 4.28798L17.0001 4.9375ZM17.0001 19.0621L16.6251 18.4126L17.0001 19.0621ZM8.00005 19.0621L7.62505 19.7117H7.62505L8.00005 19.0621ZM8.00005 4.9375L8.37505 5.58702L8.00005 4.9375ZM9.42299 3.01508L8.69229 2.84601L9.42299 3.01508ZM5.81189 18.7402L5.63971 18.0102L5.81189 18.7402ZM4.903 18.503L5.47254 18.015L4.903 18.503ZM10.0393 21.695L10.2233 20.9679L10.0393 21.695ZM9.42305 20.9848L10.1538 20.8158L9.42305 20.9848ZM15.5771 20.9848L14.8464 20.8158L15.5771 20.9848ZM14.9609 21.695L15.1448 22.422L14.9609 21.695ZM20.097 18.503L19.5275 18.015L20.097 18.503ZM21.9437 8.70289L22.6518 8.45569L21.9437 8.70289ZM21.5936 9.68352L21.1167 9.10469L21.5936 9.68352ZM19.188 5.2595L19.0159 4.52952L19.188 5.2595ZM21.5936 14.3165L21.1167 14.8953L21.5936 14.3165ZM21.9437 15.2971L21.2356 15.0499L21.9437 15.2971ZM15.5772 3.01511L14.8465 3.18418L15.5772 3.01511ZM14.8465 3.18418C15.0723 4.16005 15.6879 5.04592 16.6251 5.58702L17.3751 4.28798C16.8127 3.96329 16.4439 3.43381 16.3079 2.84603L14.8465 3.18418ZM16.6251 5.58702C17.486 6.08408 18.4639 6.2008 19.3601 5.98949L19.0159 4.52952C18.4767 4.65663 17.8922 4.5865 17.3751 4.28798L16.6251 5.58702ZM22.6518 8.45569C22.2062 7.17937 21.5272 6.01337 20.6663 5.00871L19.5273 5.98471C20.2687 6.85004 20.8527 7.85328 21.2356 8.95008L22.6518 8.45569ZM21.25 12C21.25 11.3006 21.5682 10.6762 22.0705 10.2624L21.1167 9.10469C20.2834 9.79128 19.75 10.8337 19.75 12H21.25ZM22.0705 13.7376C21.5682 13.3238 21.25 12.6994 21.25 12H19.75C19.75 13.1663 20.2834 14.2087 21.1167 14.8953L22.0705 13.7376ZM20.6666 18.991C21.5273 17.9864 22.2063 16.8205 22.6518 15.5443L21.2356 15.0499C20.8528 16.1466 20.2688 17.1497 19.5275 18.015L20.6666 18.991ZM17.3751 19.7117C17.8922 19.4131 18.4768 19.343 19.016 19.4702L19.3603 18.0102C18.464 17.7988 17.4861 17.9155 16.6251 18.4126L17.3751 19.7117ZM16.3078 21.1538C16.4437 20.566 16.8126 20.0364 17.3751 19.7117L16.6251 18.4126C15.6877 18.9538 15.0721 19.8398 14.8464 20.8158L16.3078 21.1538ZM12.5 22.75C13.4117 22.75 14.2979 22.6363 15.1448 22.422L14.7769 20.9679C14.0493 21.152 13.2866 21.25 12.5 21.25V22.75ZM9.8553 22.4221C10.7022 22.6363 11.5883 22.75 12.5 22.75V21.25C11.7134 21.25 10.9508 21.152 10.2233 20.9679L9.8553 22.4221ZM7.62505 19.7117C8.18749 20.0364 8.55637 20.566 8.69233 21.1538L10.1538 20.8158C9.92802 19.8398 9.31238 18.9538 8.37505 18.4126L7.62505 19.7117ZM5.98406 19.4702C6.52327 19.343 7.10793 19.4131 7.62505 19.7117L8.37505 18.4126C7.51401 17.9155 6.53606 17.7988 5.63971 18.0102L5.98406 19.4702ZM2.34822 15.5443C2.79374 16.8205 3.47273 17.9864 4.33347 18.991L5.47254 18.015C4.73118 17.1498 4.14726 16.1466 3.7644 15.0499L2.34822 15.5443ZM3.75004 12C3.75004 12.6994 3.43185 13.3238 2.92953 13.7376L3.88336 14.8953C4.71668 14.2087 5.25004 13.1663 5.25004 12H3.75004ZM2.92953 10.2623C3.43185 10.6762 3.75004 11.3006 3.75004 12H5.25004C5.25004 10.8337 4.71668 9.79126 3.88336 9.10468L2.92953 10.2623ZM4.33375 5.00867C3.47288 6.01334 2.79379 7.17934 2.34822 8.45567L3.7644 8.95007C4.1473 7.85326 4.73132 6.85001 5.47279 5.98468L4.33375 5.00867ZM7.62505 4.28798C7.10798 4.58651 6.52337 4.65664 5.9842 4.5295L5.63994 5.98946C6.53623 6.20081 7.51409 6.0841 8.37505 5.58702L7.62505 4.28798ZM8.69229 2.84601C8.55629 3.43379 8.18743 3.96329 7.62505 4.28798L8.37505 5.58702C9.31227 5.04591 9.92788 4.16003 10.1537 3.18415L8.69229 2.84601ZM12.5 1.25C11.5883 1.25 10.7021 1.36366 9.85521 1.57796L10.2232 3.03213C10.9508 2.84802 11.7134 2.75 12.5 2.75V1.25ZM15.145 1.578C14.298 1.36368 13.4118 1.25 12.5 1.25V2.75C13.2867 2.75 14.0494 2.84803 14.777 3.03217L15.145 1.578ZM10.1537 3.18415C10.1693 3.11668 10.1957 3.06909 10.2163 3.04413C10.2339 3.02269 10.237 3.02862 10.2232 3.03213L9.85521 1.57796C9.16401 1.75286 8.80711 2.3498 8.69229 2.84601L10.1537 3.18415ZM3.88336 9.10468C3.82248 9.05451 3.78709 9.00024 3.77289 8.96394C3.76095 8.93341 3.76974 8.93478 3.7644 8.95007L2.34822 8.45567C2.08221 9.21766 2.49436 9.9038 2.92953 10.2623L3.88336 9.10468ZM5.63971 18.0102C5.57248 18.0261 5.51821 18.0235 5.48674 18.0162C5.45969 18.0099 5.46341 18.0044 5.47254 18.015L4.33347 18.991C4.79652 19.5314 5.48849 19.5871 5.98406 19.4702L5.63971 18.0102ZM10.2233 20.9679C10.2371 20.9714 10.234 20.9773 10.2163 20.9559C10.1958 20.9309 10.1694 20.8833 10.1538 20.8158L8.69233 21.1538C8.80711 21.6501 9.16402 22.2471 9.8553 22.4221L10.2233 20.9679ZM14.8464 20.8158C14.8308 20.8833 14.8043 20.9309 14.7838 20.9559C14.7662 20.9773 14.763 20.9714 14.7769 20.9679L15.1448 22.422C15.8361 22.2471 16.193 21.6501 16.3078 21.1538L14.8464 20.8158ZM19.5275 18.015C19.5366 18.0043 19.5403 18.0098 19.5133 18.0161C19.4818 18.0235 19.4276 18.0261 19.3603 18.0102L19.016 19.4702C19.5116 19.587 20.2035 19.5314 20.6666 18.991L19.5275 18.015ZM21.2356 8.95008C21.2303 8.93479 21.2391 8.93343 21.2271 8.96395C21.2129 9.00025 21.1775 9.05452 21.1167 9.10469L22.0705 10.2624C22.5057 9.90381 22.9178 9.21767 22.6518 8.45569L21.2356 8.95008ZM3.7644 15.0499C3.76974 15.0652 3.76095 15.0666 3.77289 15.0361C3.78709 14.9998 3.82248 14.9455 3.88336 14.8953L2.92953 13.7376C2.49436 14.0962 2.08221 14.7823 2.34822 15.5443L3.7644 15.0499ZM19.3601 5.98949C19.4273 5.97364 19.4816 5.97624 19.5131 5.98357C19.5401 5.98987 19.5364 5.99537 19.5273 5.98471L20.6663 5.00871C20.2033 4.46835 19.5114 4.41269 19.0159 4.52952L19.3601 5.98949ZM5.47279 5.98468C5.46366 5.99534 5.45994 5.98984 5.48699 5.98354C5.51845 5.97621 5.57271 5.97361 5.63994 5.98946L5.9842 4.5295C5.48867 4.41265 4.79678 4.4683 4.33375 5.00867L5.47279 5.98468ZM21.1167 14.8953C21.1775 14.9455 21.2129 14.9997 21.2271 15.036C21.2391 15.0666 21.2303 15.0652 21.2356 15.0499L22.6518 15.5443C22.9178 14.7823 22.5057 14.0962 22.0705 13.7376L21.1167 14.8953ZM16.3079 2.84603C16.1931 2.34983 15.8362 1.75292 15.145 1.578L14.777 3.03217C14.7631 3.02866 14.7663 3.02273 14.7839 3.04417C14.8044 3.06913 14.8309 3.11672 14.8465 3.18418L16.3079 2.84603Z" fill="#717171"/>
</svg>
