<svg width="115" height="115" viewBox="0 0 115 115" fill="none" xmlns="http://www.w3.org/2000/svg">
<mask id="mask0_6_4026" style="mask-type:alpha" maskUnits="userSpaceOnUse" x="0" y="0" width="115" height="115">
<circle cx="57.3115" cy="57.3115" r="57.3115" fill="#D9D9D9"/>
</mask>
<g mask="url(#mask0_6_4026)">
<path d="M88.7305 104.627C88.4674 104.815 88.1667 105.003 87.9037 105.191C87.603 105.379 87.3399 105.567 87.0393 105.717C86.7762 105.868 86.5507 106.018 86.2877 106.168C86.2501 106.206 86.2125 106.206 86.1749 106.243C85.3105 106.77 84.4086 107.258 83.5066 107.709C83.2435 107.859 82.9429 108.01 82.6798 108.123C82.6798 108.123 82.6422 108.16 82.6046 108.16C82.304 108.31 82.0033 108.461 81.7027 108.611C81.1014 108.912 80.4625 109.175 79.8612 109.438C79.5605 109.588 79.2223 109.701 78.9216 109.814C78.621 109.926 78.2828 110.077 77.9821 110.19C77.6814 110.302 77.3432 110.453 77.0426 110.565C77.0426 110.565 77.0426 110.565 77.005 110.565C76.7043 110.678 76.3661 110.791 76.0654 110.904C75.389 111.129 74.6749 111.355 73.9984 111.58C73.7729 111.655 73.5099 111.73 73.2844 111.806C72.5703 112.031 71.8563 112.219 71.1422 112.369C70.8792 112.444 70.6161 112.482 70.3154 112.557C69.639 112.708 68.9249 112.858 68.2484 113.008C68.0981 113.046 67.9854 113.046 67.835 113.083C67.6095 113.121 67.3465 113.159 67.121 113.196C66.7828 113.234 66.4821 113.309 66.1439 113.346C65.9935 113.384 65.8432 113.384 65.6929 113.422C65.505 113.459 65.2795 113.497 65.054 113.497C64.4527 113.572 63.8138 113.647 63.2125 113.722C63.0246 113.76 62.7991 113.76 62.6112 113.797H62.5736C62.3105 113.835 62.0475 113.835 61.7844 113.873C61.5213 113.91 61.2582 113.91 60.9952 113.91C60.8448 113.91 60.6569 113.948 60.5066 113.948C60.206 113.948 59.9429 113.985 59.6798 113.985C59.304 113.985 58.9658 114.023 58.5899 114.023C58.2141 114.023 57.8759 114.023 57.5001 114.023C57.237 114.023 56.9739 114.023 56.7109 114.023C40.8514 113.797 26.6079 107.07 16.4233 96.3971C16.4233 96.3971 16.4233 96.3595 16.3857 96.3595C15.2582 95.3448 16.2354 89.933 20.7828 86.5131C26.4952 82.1912 40.1749 79.4853 40.1749 79.4853C40.1749 79.4853 45.4739 78.6209 65.1292 82.7173C76.6292 85.1226 85.3857 88.6177 90.2713 98.0883C91.286 100.042 92.3007 103.049 88.7305 104.627Z" fill="white"/>
<path d="M65.2419 82.304C72.4576 83.7697 80.1618 85.3481 86.0998 90.121C88.0916 91.737 89.4069 94.1046 90.4968 96.3971C91.023 97.5246 91.5491 98.6896 91.9625 99.9298C92.188 100.757 92.5262 101.696 92.3383 102.673C92.3007 102.936 92.0752 103.275 91.8873 103.462C91.023 104.327 90.0834 104.853 89.1439 105.529C83.6194 109.363 77.2681 112.069 70.6913 113.497C56.0344 116.691 40.1749 114.211 27.2844 106.507C23.0001 103.913 19.054 100.757 15.6716 97.036C15.2958 96.585 15.2958 95.8334 15.2958 95.3448C15.3334 94.2174 15.6341 93.1275 16.0099 92.1128C16.9118 89.7827 18.0769 87.4527 20.0687 85.8367C21.4968 84.8595 23.0377 84.0327 24.6161 83.3563C29.5769 81.2517 34.8007 79.786 40.1749 79.1847C40.6259 79.1471 40.7011 79.786 40.2501 79.8612C35.1014 80.9135 29.9903 82.4919 25.2174 84.634C23.4886 85.4984 21.6471 86.2501 20.2566 87.603C18.9413 89.0311 18.0017 90.7974 17.2501 92.6014C16.7615 93.6912 16.4233 95.42 16.5736 96.2844C18.9413 99.103 21.7223 101.583 24.7288 103.726C41.1896 115.226 66.1814 115.977 83.6945 106.394C85.273 105.529 86.8138 104.552 88.2795 103.538C88.9935 103.049 89.7452 102.636 90.3089 102.072C90.3465 102.034 90.3089 102.072 90.3089 102.11C90.3089 102.147 90.2713 102.185 90.2713 102.185C90.3089 101.734 90.1586 101.132 89.9707 100.531C89.2942 98.3514 88.2043 96.0589 87.0393 94.0671C85.1978 91.0981 82.0785 89.219 78.9216 87.7157C76.7419 86.701 74.4494 85.9118 72.1194 85.1602C69.7893 84.4086 67.4216 83.7697 65.054 83.2059C64.4527 83.0556 64.6406 82.1912 65.2419 82.304Z" fill="black"/>
<path d="M101.208 127.928H6.1635C6.1635 127.928 7.29095 111.543 13.0034 99.1033C15.0328 94.7062 16.6112 88.3173 20.3318 85.4235C24.6161 82.1164 33.072 80.0494 36.0785 79.448C38.2958 78.9971 38.5965 79.4105 40.1374 78.9971C40.1374 79.185 40.1749 79.3353 40.1749 79.5232C40.1749 79.5232 44.2338 91.5869 54.7942 95.8713C63.4004 99.3664 68.5115 97.0363 69.3008 93.1654C69.7893 90.685 68.2485 86.6262 67.4592 85.3108C67.0083 84.935 66.7076 84.3713 66.5573 83.8075L66.2566 82.5673C66.9707 82.417 67.6472 82.2291 68.3236 82.0036C68.5491 81.9284 68.737 81.8533 68.9625 81.7781C74.4119 83.319 81.0262 86.1 86.8138 90.4971C89.9707 92.9023 92.6014 99.1033 95.8334 109.589C99.6292 121.652 101.208 127.928 101.208 127.928Z" fill="#0671E0"/>
<path d="M72.3826 91.211C72.2698 90.1587 72.0819 89.2191 71.894 88.3923C71.1048 84.7093 68.7371 81.4773 68.7371 81.4773C68.7371 81.4773 62.7992 77.3809 53.6293 76.291C44.4594 75.2012 39.9871 76.291 39.9871 76.291C39.3107 76.5165 38.4839 76.9675 37.7322 77.3809C36.3793 78.1701 35.2894 79.2976 34.613 80.6881C34.613 80.7257 34.5754 80.7257 34.5754 80.7632C33.5983 83.5819 38.6342 93.992 51.5999 99.8172C64.979 105.83 73.2845 98.8025 72.3826 91.211Z" fill="#0671E0"/>
<path d="M24.8042 149.839C24.3156 138.827 24.0901 127.215 23.9398 116.166C23.8646 111.881 23.6767 107.559 24.729 103.35C26.345 96.3224 31.2307 89.7456 38.2209 87.4531L37.9578 87.7162C38.747 85.7244 39.6114 83.5071 41.528 82.342C41.6032 82.3045 41.6408 82.4172 41.6032 82.4548C40.2879 83.3567 39.5738 84.8976 38.9725 86.3633C38.747 86.8518 38.6343 87.4531 38.4088 87.9041C35.778 88.8812 33.448 90.5724 31.5313 92.5643C29.6146 94.5937 28.0738 96.9989 27.0591 99.592C25.7437 102.862 25.18 106.357 25.0673 109.852C24.9921 123.043 25.3679 136.986 24.8042 149.839Z" fill="black"/>
<path d="M41.5279 149.839C40.7762 142.961 40.3253 135.896 40.2501 128.981C40.1749 122.629 40.3628 116.09 41.1145 109.776C41.5279 106.093 42.8432 97.6751 45.5867 95.2323L45.8874 95.0068C46.0753 94.9316 46.1128 94.8565 46.3759 94.8189L46.0001 95.1947C46.188 93.7666 46.7142 92.4137 47.4658 91.211C47.7289 90.8352 47.9919 90.4594 48.2926 90.0836C48.3302 90.046 48.4429 90.0836 48.3677 90.1588C48.1047 90.5346 47.8416 90.9104 47.6537 91.3238C47.0148 92.5264 46.5638 93.8418 46.4511 95.1947C46.4511 95.2323 46.4135 95.2323 46.4135 95.2699C46.188 95.345 45.9249 95.5329 45.737 95.7584C45.1733 96.3597 44.7975 97.2241 44.4592 97.9758C43.9331 99.2911 43.5573 100.719 43.2566 102.147C42.505 105.793 42.0916 109.626 41.7909 113.347C41.3775 119.585 41.2272 126.2 41.2272 132.438L41.2648 135.933C41.2648 140.556 41.4903 145.216 41.603 149.839C41.6406 149.876 41.5279 149.914 41.5279 149.839Z" fill="black"/>
<path d="M56.9738 149.838C57.0114 138.376 56.5228 126.876 56.4853 115.414C56.4477 110.227 56.4477 104.891 56.5604 99.7044C56.8987 98.3514 57.1617 96.9233 57.2745 95.4952C57.3121 95.0442 57.3121 94.5557 57.2745 94.0671C57.2745 93.992 57.3872 93.992 57.3872 94.0671C57.6879 95.9462 57.4624 97.8629 57.0866 99.7419C57.2369 103.838 57.3872 108.085 57.4624 112.257C57.7255 121.652 57.8006 131.048 57.5751 140.443C57.5375 142.247 57.4248 144.915 57.3121 146.719C57.2369 147.771 57.1242 148.786 57.049 149.838C57.049 149.876 57.0114 149.876 56.9738 149.876V149.838Z" fill="black"/>
<path d="M74.5622 149.838C74.224 141.157 73.9985 132.062 73.2468 123.418C72.7959 117.932 72.0818 112.52 71.0295 107.146C70.3906 103.914 69.5638 100.644 68.2485 97.5998C68.023 95.8711 67.4593 93.992 66.1063 92.7894C66.0687 92.7518 66.0687 92.7142 66.1063 92.7142C66.1439 92.6766 66.1439 92.6766 66.1815 92.7142C66.5573 92.9773 66.8955 93.3155 67.1962 93.6913C68.023 94.7812 68.5491 96.2845 68.737 97.5247C70.2779 100.494 71.1423 103.726 71.9315 106.958C72.42 109.062 72.871 111.355 73.2093 113.459C73.6978 116.466 74.1488 120.299 74.3743 123.343C74.5622 125.185 74.6749 128.079 74.7877 129.958C74.938 134.392 74.9756 138.789 74.9004 143.224L74.7125 149.838C74.7125 149.876 74.6749 149.876 74.6374 149.876C74.5998 149.876 74.5622 149.838 74.5622 149.838Z" fill="black"/>
<path d="M88.6928 149.801C89.6323 139.504 89.2565 129.056 87.7908 118.834C87.415 116.165 86.8513 113.384 86.25 110.754C85.5359 108.16 84.6715 105.53 83.5065 103.124C82.6797 101.283 81.5898 99.5166 80.5 97.8254C78.9967 95.6833 77.08 93.466 75.013 91.85C73.9607 90.9856 72.8333 90.1588 71.6307 89.5575C71.0294 88.7683 70.6535 87.979 69.7892 87.2274C69.1127 86.5885 68.2859 86.0624 67.3464 86.0248C67.3088 86.0248 67.2712 85.9872 67.2712 85.9496C67.2712 85.912 67.3088 85.912 67.3088 85.912C67.7973 85.8745 68.2859 86.0248 68.7369 86.2127C70.0522 86.8516 71.0294 88.0166 71.8186 89.2192C77.0424 91.662 81.1764 96.6228 83.9199 101.734C85.0098 103.914 85.9869 106.169 86.6634 108.499L87.2647 110.49C89.0686 117.932 89.7826 125.598 89.8954 133.227C89.933 138.79 89.6323 144.352 88.7679 149.839C88.7679 149.876 88.7303 149.876 88.6928 149.876C88.6928 149.876 88.6928 149.839 88.6928 149.801Z" fill="black"/>
<path d="M71.7813 106.582C77.0427 106.77 80.9512 105.079 81.5525 99.4037C81.5901 98.9527 81.9284 98.6145 82.3417 98.5393C84.6342 97.9756 86.1751 95.9462 86.6261 93.6537C86.7388 93.2779 86.7764 92.7893 86.8516 92.4135C86.8891 92.0001 86.9267 91.5491 86.9643 91.0981C86.9643 91.0605 87.0019 91.0605 87.0395 91.0605C87.077 91.0605 87.077 91.0981 87.077 91.0981C87.1522 91.8873 87.2274 92.9396 87.1522 93.7288C87.0019 96.3971 85.2355 98.9151 82.5672 99.6292L82.6424 99.554C82.3417 103.726 79.7862 106.77 75.5019 107.033C74.2617 107.146 72.9839 107.033 71.7437 106.732C71.7061 106.732 71.7061 106.695 71.7061 106.657C71.7061 106.582 71.7437 106.582 71.7813 106.582Z" fill="black"/>
<path d="M19.2795 89.2568C19.6929 91.3989 20.9331 93.5035 22.8122 94.631C22.9625 94.7437 23.3008 94.894 23.4511 95.0068C23.7893 95.1571 24.1651 95.3074 24.5034 95.4202L25.2174 95.6081C25.4053 95.6833 25.7436 95.7208 25.9691 95.7584L26.7207 95.8712C27.4723 95.9839 28.6374 95.5705 29.0132 96.4349C31.4936 101.696 36.3416 105.68 42.4298 104.515C42.8057 104.477 43.1815 104.628 43.3318 104.966C43.67 105.492 44.121 106.056 44.5344 106.544C46.6766 109.1 49.9086 110.979 53.3285 110.265C54.6815 110.002 55.9968 109.438 57.1994 108.687C57.237 108.649 57.2746 108.687 57.2746 108.687C51.9756 113.084 46.0377 110.754 42.4298 105.492L42.5426 105.53C41.0393 105.793 39.4985 105.868 37.9576 105.567C33.4478 104.74 29.9903 100.907 28.1864 96.7355L28.2615 96.7731C27.4723 96.7355 26.6079 96.698 25.8187 96.5101C25.5932 96.4725 25.2174 96.3973 25.0295 96.3221C24.5785 96.2094 23.9021 95.9463 23.4887 95.7208L23.1128 95.5329L22.7746 95.3074C22.6243 95.1947 22.2485 95.0068 22.0981 94.8565C20.3694 93.5035 19.3547 91.3614 19.1292 89.2192C19.1292 89.1816 19.1668 89.144 19.1668 89.144C19.2795 89.2192 19.2795 89.2192 19.2795 89.2568Z" fill="black"/>
<path d="M70.5034 102.034C75.0132 100.832 77.2305 98.201 76.554 93.4657C76.5164 93.1651 76.5916 92.8644 76.7795 92.6765C78.0197 91.2108 78.3579 89.219 78.17 87.3399C78.1325 86.7386 77.907 85.8742 77.7942 85.2729C77.7942 85.2353 77.7942 85.1978 77.8318 85.1978C77.8694 85.1978 77.8694 85.1978 77.907 85.2353C78.2076 85.8742 78.5083 86.5507 78.6962 87.2272C79.072 88.6177 79.072 90.121 78.621 91.4739C78.3955 92.1504 78.0573 92.8268 77.6063 93.3906L77.6439 93.3154C78.2828 96.6978 77.1553 100.193 73.7354 101.508C72.7207 101.922 71.6308 102.147 70.541 102.185C70.4282 102.147 70.4282 102.034 70.5034 102.034Z" fill="black"/>
<path d="M28.036 83.5444C27.4347 85.4986 28.1112 87.6784 29.5769 89.0689L29.7648 89.2944L29.9903 89.4823C30.4413 89.8581 30.9674 90.1963 31.456 90.5346L32.5083 91.0983C32.7338 91.211 32.8841 91.4365 32.9217 91.6996C33.6733 94.5182 35.9658 96.7355 38.5589 97.9382C40.2125 98.8025 42.0164 99.2159 43.8204 99.5542C44.3465 99.6669 44.4968 100.155 44.8726 100.494C45.286 100.907 45.737 101.321 46.188 101.696C48.9315 104.026 52.6145 105.267 56.2223 104.778L57.1619 104.665C57.1994 104.665 57.237 104.665 57.237 104.703C57.237 104.74 57.237 104.74 57.1994 104.778C53.554 105.905 49.5328 105.191 46.3759 103.012C45.4364 102.373 44.121 101.283 43.5949 100.569C41.0769 100.155 38.5213 99.4038 36.4168 97.9382C34.3874 96.5852 32.3955 94.0297 32.1325 91.8123C31.4936 91.4365 30.554 90.8352 29.9903 90.3842C29.8776 90.3091 29.389 89.8205 29.2762 89.7078C29.0883 89.4823 28.8253 89.2192 28.6749 88.9561C27.5475 87.3777 27.1717 85.2355 27.9609 83.4316C27.9609 83.394 27.9985 83.394 28.036 83.394C28.0736 83.4692 28.0736 83.5068 28.036 83.5444Z" fill="black"/>
<path d="M34.6128 80.7256C34.5377 82.4543 35.1766 84.1831 36.304 85.4609C36.5295 85.7615 36.9053 86.0998 37.206 86.3628C37.3187 86.438 37.6945 86.7386 37.8073 86.8138C38.1831 87.1145 38.8596 87.2648 38.8972 87.7909C39.0099 88.6177 39.4233 89.4821 39.9119 90.1586C41.4527 92.4135 44.121 93.6161 46.7142 94.3677C46.9396 94.4429 47.09 94.5556 47.2027 94.7435C49.4952 97.6373 53.2909 99.1406 56.9364 98.7648C57.5753 98.8024 58.139 99.1406 58.8155 99.2534C60.2436 99.6292 61.822 99.8171 63.2877 99.7043C65.2419 99.6292 67.0458 98.8024 68.023 97.1112C68.2109 96.8481 68.474 96.8105 68.6994 96.6226C69.7517 95.9086 70.6161 94.9315 71.1423 93.7664C71.8187 92.3759 71.6684 90.7975 71.2926 89.3694C71.3677 88.7681 71.4805 88.0916 71.4429 87.4151C71.4053 85.536 70.6537 83.6945 69.4511 82.2288C69.3759 82.1913 69.4887 82.0785 69.5262 82.1537C71.4053 83.9952 72.2697 86.7386 71.8939 89.3318C73.0965 92.4511 71.706 95.871 68.7746 97.6749C67.8726 99.4413 65.505 100.681 63.4004 100.757C61.3334 100.945 58.853 100.494 57.0867 99.8922C53.0655 100.306 48.8563 98.5769 46.4135 95.3073L46.4511 95.3449C45.6243 95.0818 44.4968 94.6684 43.7452 94.2926C43.5573 94.1798 42.956 93.8792 42.7681 93.7664C42.5426 93.6161 42.054 93.3154 41.8661 93.1651L41.3024 92.7141C39.7991 91.4739 38.5965 89.7828 38.3334 87.8285L38.371 87.9037C38.0704 87.6782 37.7697 87.4903 37.5066 87.2648L37.0932 86.9266L36.9053 86.7386C36.7174 86.5507 36.5295 86.3252 36.3416 86.1749C36.0034 85.7615 35.6651 85.3105 35.4021 84.8596C34.7256 83.6194 34.3874 82.1537 34.5753 80.7256C34.5753 80.688 34.6128 80.688 34.6504 80.688C34.5753 80.688 34.6128 80.688 34.6128 80.7256Z" fill="black"/>
<path d="M66.7947 104.426C66.8072 103.347 65.9594 102.462 64.9009 102.45C63.8425 102.438 62.9743 103.303 62.9617 104.382C62.9492 105.461 63.797 106.346 64.8555 106.358C65.9139 106.371 66.7821 105.506 66.7947 104.426Z" fill="black"/>
<path d="M69 109.513C69.2631 111.505 67.9477 113.347 66.0686 113.572C64.1896 113.798 62.4608 112.407 62.1977 110.378C61.9347 108.386 63.1373 105.643 65.0163 105.379C66.8954 105.154 68.7369 107.484 69 109.513Z" fill="black"/>
<path d="M64.1142 107.108C63.1371 107.897 60.5064 107.972 59.4541 107.221C58.1387 106.206 59.5292 102.861 60.4312 101.809C60.4688 101.771 60.5439 101.771 60.5439 101.846L60.2057 104.026C60.1305 104.74 59.9802 105.492 60.0554 106.168C60.0554 106.319 60.2057 106.394 60.356 106.431C61.3707 106.807 62.4606 106.92 63.5505 107.033C63.7008 107.033 63.9639 107.07 64.0766 106.995C64.0766 107.033 64.1142 107.07 64.1142 107.108Z" fill="black"/>
<path d="M63.8137 109.325C62.3856 110.34 60.8072 110.791 59.0409 110.603C58.9281 110.603 58.7026 110.528 58.5899 110.49C56.786 109.889 56.1846 107.672 56.5605 105.98C56.5605 105.905 56.6356 105.868 56.6732 105.943C57.0866 107.258 57.6503 109.175 59.1912 109.438C59.9428 109.551 60.732 109.513 61.4837 109.438C62.2353 109.363 63.0245 109.288 63.7762 109.137C63.8513 109.175 63.8889 109.25 63.8137 109.325C63.8513 109.288 63.8137 109.325 63.8137 109.325Z" fill="black"/>
<path d="M63.2876 111.167C62.4608 111.543 61.7092 111.843 61.1079 112.219C60.6569 112.52 60.3562 112.745 60.1683 113.234C59.9428 113.835 59.9804 114.549 60.018 115.376C60.0931 116.128 60.2059 116.954 60.2435 117.856C60.2435 117.894 60.1683 117.931 60.1307 117.894C58.9281 115.977 57.8382 112.294 60.7696 111.392C61.5588 111.129 62.4232 111.054 63.25 111.092C63.3628 111.054 63.3628 111.167 63.2876 111.167Z" fill="black"/>
<path d="M64.2271 112.369C64.0768 113.346 63.701 114.023 64.0016 114.775C64.5278 115.864 64.9788 116.992 64.9788 118.307C64.9788 118.345 64.9036 118.382 64.9036 118.345C64.5654 117.894 64.2271 117.405 63.8889 116.917C63.4755 116.165 62.8366 115.413 62.8366 114.511C62.8742 113.61 63.4755 112.82 64.1144 112.257C64.2271 112.219 64.2647 112.294 64.2271 112.369Z" fill="black"/>
<path d="M66.3691 106.732C66.5571 106.544 66.9705 106.206 67.1959 106.018C67.7973 105.53 68.624 105.004 69.2254 104.515C69.2629 104.477 69.3005 104.44 69.2629 104.515C69.2254 104.553 69.1878 104.628 69.1502 104.703C69.1126 104.816 69.075 104.891 69.1126 105.004C68.7744 103.651 68.361 102.335 68.4361 100.87V100.832C68.4361 100.794 68.5113 100.757 68.5489 100.794C69.0374 101.772 69.526 102.786 69.9018 103.801C70.0522 104.177 70.2401 104.59 70.2401 105.041C70.2025 105.229 70.0522 105.304 69.9394 105.417C69.4884 105.755 68.9623 105.981 68.4737 106.206C68.2106 106.319 66.2564 107.146 66.3316 106.77C66.3316 106.732 66.3691 106.732 66.3691 106.732Z" fill="black"/>
<path d="M67.1584 108.762C68.5113 107.897 70.0897 107.521 71.4427 106.958C71.8185 106.732 72.0064 106.356 72.2319 105.905C72.5701 105.304 72.8332 104.552 73.209 103.763C73.209 103.726 73.2466 103.726 73.2842 103.726C73.3969 104.891 73.2466 106.168 72.6453 107.221C72.0064 108.311 70.5783 108.386 69.4508 108.611C68.6616 108.724 67.91 108.837 67.1208 108.874C67.0832 108.874 67.0832 108.799 67.1584 108.762Z" fill="black"/>
<path d="M68.0978 110.415C71.0292 107.972 74.5994 109.889 73.9605 113.722C73.8102 114.624 73.472 115.489 72.8331 116.203C72.7955 116.24 72.7203 116.203 72.7203 116.165C72.8331 115.752 72.9082 115.376 72.9458 114.962C73.3216 112.181 72.6076 109.814 69.3004 110.302C68.887 110.34 68.4736 110.415 68.0978 110.528C68.0602 110.565 68.0226 110.453 68.0978 110.415Z" fill="black"/>
<path d="M67.5718 111.843C68.8871 111.693 70.3152 112.708 70.3528 114.173C70.2776 115.677 69.6012 117.03 68.361 117.932C68.3234 117.969 68.2482 117.969 68.2482 117.894C68.6241 116.804 68.9999 115.714 69.1878 114.587C69.3381 114.023 69.1878 113.497 68.812 113.046C68.4737 112.633 68.0227 112.257 67.5342 111.956C67.459 111.881 67.4966 111.806 67.5718 111.843Z" fill="black"/>
<path d="M68.7743 92.3005C67.9851 96.1714 62.8739 98.5015 54.2677 95.0064C45.3233 91.3985 41.4524 82.7923 40.4752 80.2368C45.7743 70.3152 42.0913 63.4377 42.0913 63.4377C54.3053 62.3855 64.9785 76.6665 64.9785 76.6665L66.6321 83.7319C66.7824 84.3332 67.0831 84.8593 67.5341 85.2351C68.3233 86.6257 69.2628 89.8201 68.7743 92.3005Z" fill="white"/>
<path d="M40.2875 80.3494C41.0016 79.2596 41.4525 77.9818 41.7532 76.7416C42.3169 74.1485 42.5048 71.5177 42.5424 68.887V67.9099C42.4297 66.9328 42.0914 65.9181 41.7156 65.0161C41.227 63.8135 42.9934 63.0619 43.5571 64.2645C43.6323 64.4148 43.6323 64.6779 43.6323 64.8282C43.745 69.9393 43.9705 76.5161 40.7385 80.7628C40.513 80.9883 40.062 80.6501 40.2875 80.3494Z" fill="black"/>
<path d="M65.392 76.5914C65.9557 76.9296 66.1436 77.3806 66.2188 77.8316C66.4442 78.7336 66.3691 79.7107 66.5946 80.6502C66.7825 81.5522 67.3462 82.4166 67.4965 83.3561C67.6844 84.3332 68.2482 86.4002 68.4737 87.4149C68.5488 87.6404 68.3985 87.9035 68.1354 87.9411C67.9851 87.9786 67.8724 87.9411 67.7596 87.8659C67.271 87.4525 67.0456 87.0391 66.7449 86.513C66.2563 85.611 65.9181 84.7842 65.6175 83.7695C65.3544 82.8675 65.4671 81.8904 65.2416 80.9509C65.0537 80.0489 64.5276 79.1845 64.3397 78.245C64.2269 77.794 64.1893 77.3054 64.5276 76.7417C64.7531 76.5162 65.1289 76.4411 65.392 76.5914Z" fill="black"/>
<path d="M68.098 86.5131C60.9199 86.1373 55.0571 83.8824 49.3447 73.6978C54.1552 77.9445 59.83 79.5605 65.8055 80.3121L66.5947 83.7696C66.745 84.3709 67.647 86.1373 68.098 86.5131Z" fill="black"/>
<path d="M67.7975 85.1225C69.0752 87.5278 69.8269 90.5343 69.0377 93.2026C68.4363 95.0817 66.7076 96.4722 64.8285 96.9983C60.469 98.1634 55.4331 96.3219 51.5622 94.2549C46.7893 91.5866 43.2566 87.1144 41.0017 82.2287C40.8514 81.8529 41.3775 81.5523 41.603 81.9281C42.3922 83.5065 43.2942 85.0474 44.3089 86.4379C45.3236 87.866 46.4886 89.1813 47.804 90.3464C51.6373 93.8039 56.8236 95.9461 62.0099 95.9461C67.3465 95.7957 69.3759 92.9771 68.1357 87.7908C67.9478 86.964 67.6471 86.0996 67.2337 85.3856C67.0082 85.0849 67.572 84.7467 67.7975 85.1225Z" fill="black"/>
<path d="M82.3414 39.9868C83.0179 43.1437 83.3561 45.6992 81.5146 54.1175C79.7107 62.4983 84.1078 64.227 73.6976 77.6437C69.4509 83.1306 59.1535 81.5898 50.8104 75.9149C47.9918 73.9983 46.7891 69.0751 44.6846 65.58C43.031 62.8365 42.2793 65.6927 40.0996 63.3251C37.1306 60.093 33.5604 53.5914 35.3267 42.0914C38.1829 23.4509 52.9525 21.2711 63.8888 23.3381C74.9002 25.4427 80.5375 31.6813 82.3414 39.9868Z" fill="white"/>
<path d="M41.9787 66.6699C41.1143 65.2042 39.9869 63.9264 38.9346 62.5735C37.9199 61.183 37.0931 59.6421 36.4166 58.0637C31.9444 47.0898 33.6731 31.6438 44.647 25.1797C49.1944 22.549 54.6813 21.9101 59.7924 22.3235C70.7287 23.1127 80.763 28.1487 83.1306 39.7238C84.4084 44.8349 82.6797 50.0964 81.7025 55.0947C81.2516 57.5751 81.6274 60.1307 81.5898 62.6862C81.5522 65.2794 80.8382 67.8725 79.861 70.2777C79.2597 71.9313 78.2074 73.397 77.1176 74.75C75.3136 76.9297 73.5097 79.147 71.2172 80.8382C70.6911 81.214 69.7516 81.4019 69.1127 81.4771C67.3463 81.7402 65.6176 81.8153 63.8512 81.7026C56.9362 81.4019 49.5326 78.0571 46.7516 71.3676C46.6388 71.1045 47.0146 70.9166 47.165 71.1421C50.7728 76.8545 57.3872 79.6732 63.964 80.049C65.9934 80.1617 68.0604 80.1241 70.0522 79.7107C71.0293 79.2222 71.8937 78.3578 72.7205 77.5686C74.7499 75.5392 76.8169 73.3594 78.2826 70.879C80.0489 67.5343 81.0261 63.8888 80.7254 60.0931C80.6503 58.4019 80.6127 56.6356 80.9509 54.9444C81.2516 53.2532 81.6274 51.6372 81.8529 49.9085C82.0784 48.2549 82.1911 46.5637 82.1911 44.9101C82.0032 40.0621 80.4248 35.0637 77.3431 31.3055C70.5408 22.8496 54.4558 20.6323 45.3986 26.4199C39.6862 29.9526 37.0179 36.567 36.1535 42.9934C34.8382 50.6977 35.214 58.2892 41.3398 63.8888L43.1437 65.7679C43.8578 66.5947 42.58 67.5719 41.9787 66.6699Z" fill="black"/>
<path d="M46.4132 54.7188C46.4132 54.7188 45.2481 49.0815 39.7612 49.758C35.0259 50.3593 33.3723 61.709 44.1207 64.8659" fill="white"/>
<path d="M43.6323 59.9427C42.7679 59.4542 42.1666 58.6274 42.129 57.6127C42.1666 56.861 42.2793 55.9967 42.0914 55.245C41.9787 54.531 41.227 54.3431 40.6633 54.3807C40.062 54.4934 39.6862 55.245 39.5735 55.8463C39.5735 55.8839 39.5359 55.9967 39.5359 56.0343C39.4983 56.2222 39.1976 56.2222 39.1225 56.0343C38.6339 54.5686 39.7238 52.9525 41.3022 53.1405C43.5195 53.2908 43.8202 55.6209 43.4068 57.3872C43.1813 58.1388 43.482 58.8153 43.8954 59.4542L43.9705 59.5669C44.1584 59.7924 43.8578 60.0931 43.6323 59.9427Z" fill="black"/>
<path d="M73.6976 50.7352C74.2613 53.4035 75.3136 55.8839 76.6289 58.2139C77.794 61.0701 74.7874 63.776 72.1191 63.6633C71.8185 63.6633 71.7809 63.2499 72.044 63.1747C73.7351 62.6486 75.276 61.5211 75.5391 59.7924C75.6518 59.2662 75.5015 58.8152 75.2384 58.3643C73.9982 56.0342 73.2466 53.3659 73.4345 50.7352C73.4345 50.5473 73.6976 50.5473 73.6976 50.7352Z" fill="black"/>
<path d="M46.2254 54.7565C45.361 52.5392 43.482 50.4346 40.964 50.4722C40.7385 50.4346 40.3627 50.5098 40.1372 50.5098C39.4983 50.5474 38.9721 50.7729 38.4836 51.2239C36.0784 53.6291 36.4918 57.8758 38.446 60.5441C39.1225 61.4837 39.9869 62.3105 40.964 62.9869C41.9411 63.6634 43.031 64.1895 44.196 64.6405C44.4591 64.7157 44.3463 65.1291 44.0833 65.0915C41.5653 64.5654 39.1601 63.3252 37.5065 61.2582C34.9509 58.1765 34.4248 53.0278 37.4689 50.0212C38.1453 49.4199 39.0849 48.969 40.0244 48.969C40.3251 48.969 40.7761 48.8938 41.0767 48.969C42.6552 49.0441 44.1584 49.8333 45.1355 51.0735C45.9999 52.1258 46.4885 53.4036 46.6388 54.6814C46.6388 54.9069 46.3006 54.982 46.2254 54.7565Z" fill="black"/>
<path d="M70.8415 67.4214C68.4363 69.7139 63.8889 67.8723 62.6863 65.0913C62.536 64.7531 62.9118 64.4524 63.2124 64.6027C63.8513 64.941 64.4151 65.2792 65.0164 65.5423C66.7451 66.3315 68.549 66.9704 70.4657 66.7825C70.8415 66.7073 71.1046 67.1583 70.8415 67.4214Z" fill="black"/>
<path d="M59.6798 54.5688C58.7779 54.5313 58.1014 53.7796 58.1765 52.8777L58.2141 51.8254C58.2517 50.9234 59.0033 50.2469 59.9053 50.3221C60.8073 50.3597 61.4837 51.1113 61.4086 52.0133L61.371 53.0656C61.3334 53.93 60.5818 54.6064 59.6798 54.5688Z" fill="black"/>
<path d="M75.5016 55.1327C74.6748 55.0951 74.0359 54.3811 74.0735 53.5543L74.1111 52.5771C74.1487 51.7503 74.8627 51.1115 75.6895 51.149C76.5163 51.1866 77.1552 51.9007 77.1176 52.7275L77.08 53.7046C77.0424 54.5314 76.3284 55.1703 75.5016 55.1327Z" fill="black"/>
<path d="M63.0622 52.5394C61.822 51.7126 60.469 51.1489 58.9658 51.4495C58.4772 51.5247 57.9886 51.675 57.688 52.0133C57.5752 52.1636 57.3122 52.126 57.3122 51.9005C57.3498 51.1489 57.9886 50.6603 58.5899 50.3597C59.755 49.7584 61.371 49.8711 62.4233 50.6603C62.7991 50.8858 64.0769 52.2763 63.4004 52.577C63.2501 52.6522 63.1749 52.6146 63.0622 52.5394Z" fill="black"/>
<path d="M73.8105 52.7272C73.8105 51.1487 75.7648 50.585 76.9674 51.1487C77.6439 51.4494 78.1324 52.0507 78.3203 52.7647C78.3955 52.9902 78.0573 53.1782 77.9069 52.9902C77.2681 52.2386 76.1782 51.8628 75.3138 52.3138C75.0507 52.4641 75.0132 52.5768 74.938 52.7272C74.938 53.4788 73.8481 53.4412 73.8105 52.7272Z" fill="black"/>
<path d="M64.8661 46.3385C65.6553 46.6016 66.4445 45.8875 66.2942 45.0231C66.219 44.5721 66.0311 44.1212 65.6553 43.7829C64.5279 42.7682 59.8677 41.8663 57.0491 43.1816C54.5687 44.3842 61.2583 45.1359 64.8661 46.3385Z" fill="black"/>
<path d="M76.1032 46.9398C75.4643 47.1653 74.7878 46.4888 74.9005 45.6996C74.9381 45.2862 75.0885 44.8728 75.3891 44.5721C76.2911 43.6702 79.3728 42.9561 81.327 44.3466C83.0182 45.5117 79.0345 45.8499 76.1032 46.9398Z" fill="black"/>
<path d="M86.0246 32.0949C84.0703 15.4086 67.4968 9.77136 70.6912 20.8955C70.6912 20.8955 66.3318 13.9053 56.5229 13.5295C48.1046 13.2289 53.2157 19.2044 53.2157 19.2044C53.2157 19.2044 46.6765 15.4462 35.5899 21.0835C25.9314 26.0067 34.8759 30.3285 34.8759 30.3285C34.8759 30.3285 27.585 34.1995 27.4723 42.5426C27.4347 44.7223 29.2386 48.0671 33.5229 46.9772C32.4331 55.2828 37.5066 62.0851 39.8367 64.8661C42.8432 68.474 43.1063 71.2174 43.1063 71.2174C44.6471 70.3531 42.8432 66.4821 42.8808 64.4527C33.4854 60.8449 35.1765 50.3596 39.7615 49.7583C44.572 49.157 46.0752 53.4413 46.3383 54.4936C47.1275 53.554 47.353 49.9086 47.804 46.0377C49.1945 45.5867 50.4347 45.0982 51.4494 44.4593C55.4331 42.0916 57.3122 37.9952 61.371 35.59C68.4739 31.3433 70.3154 40.9266 74.1112 37.3939C78.5082 33.3351 81.7027 36.5671 82.6798 41.5655C83.0556 43.3694 85.3481 43.2191 85.6863 41.4151C86.2125 38.7844 86.438 35.6276 86.0246 32.0949Z" fill="black"/>
<path d="M108.31 31.6815C131.123 75.6145 91.0229 125.185 43.219 113.083C21.7598 107.747 4.5098 89.1439 0.939542 67.3089C-3.11928 45.5867 6.68954 22.2485 25.0294 9.95924C50.1716 -7.32834 85.0098 -1.57834 103.011 23.1504C103.124 23.2632 103.087 23.4511 102.936 23.5638C102.824 23.6766 102.636 23.639 102.523 23.4887C100.042 20.2942 97.2239 17.4004 94.1422 14.8073C89.0686 10.4854 83.1307 7.10303 76.8546 4.81055C44.9101 -6.76462 9.84641 12.4772 2.85621 45.8873C-5.03595 83.3187 26.7957 117.781 64.7533 112.632C94.0294 108.949 115.789 81.9282 113.384 52.5393C112.858 45.4364 110.979 38.4086 107.859 31.9445C107.784 31.8318 107.859 31.6815 107.972 31.6063C108.085 31.5311 108.235 31.5687 108.31 31.6815Z" fill="black"/>
</g>
</svg>
