<svg width="158" height="124" viewBox="0 0 158 124" fill="none" xmlns="http://www.w3.org/2000/svg">
<path d="M2.59091 47V0.454544H20.4091C23.7727 0.454544 26.5682 0.984847 28.7955 2.04545C31.0379 3.09091 32.7121 4.52273 33.8182 6.34091C34.9394 8.15909 35.5 10.2197 35.5 12.5227C35.5 14.4167 35.1364 16.0379 34.4091 17.3864C33.6818 18.7197 32.7045 19.803 31.4773 20.6364C30.25 21.4697 28.8788 22.0682 27.3636 22.4318V22.8864C29.0152 22.9773 30.5985 23.4848 32.1136 24.4091C33.6439 25.3182 34.8939 26.6061 35.8636 28.2727C36.8333 29.9394 37.3182 31.9545 37.3182 34.3182C37.3182 36.7273 36.7349 38.8939 35.5682 40.8182C34.4015 42.7273 32.6439 44.2348 30.2955 45.3409C27.947 46.447 24.9924 47 21.4318 47H2.59091ZM11.0227 39.9545H20.0909C23.1515 39.9545 25.3561 39.3712 26.7045 38.2045C28.0682 37.0227 28.75 35.5076 28.75 33.6591C28.75 32.2803 28.4091 31.0379 27.7273 29.9318C27.0455 28.8106 26.0758 27.9318 24.8182 27.2955C23.5606 26.6439 22.0606 26.3182 20.3182 26.3182H11.0227V39.9545ZM11.0227 20.25H19.3636C20.8182 20.25 22.1288 19.9848 23.2955 19.4545C24.4621 18.9091 25.3788 18.1439 26.0455 17.1591C26.7273 16.1591 27.0682 14.9773 27.0682 13.6136C27.0682 11.8106 26.4318 10.3258 25.1591 9.15909C23.9015 7.99242 22.0303 7.40909 19.5455 7.40909H11.0227V20.25ZM52.517 0.454544V47H44.2898V0.454544H52.517ZM83.2273 32.3182V12.0909H91.4545V47H83.4773V40.7955H83.1136C82.3258 42.75 81.0303 44.3485 79.2273 45.5909C77.4394 46.8333 75.2348 47.4545 72.6136 47.4545C70.3258 47.4545 68.303 46.947 66.5455 45.9318C64.803 44.9015 63.4394 43.4091 62.4545 41.4545C61.4697 39.4848 60.9773 37.1061 60.9773 34.3182V12.0909H69.2045V33.0455C69.2045 35.2576 69.8106 37.0152 71.0227 38.3182C72.2348 39.6212 73.8258 40.2727 75.7955 40.2727C77.0076 40.2727 78.1818 39.9773 79.3182 39.3864C80.4545 38.7955 81.3864 37.9167 82.1136 36.75C82.8561 35.5682 83.2273 34.0909 83.2273 32.3182ZM115.369 47.6818C111.869 47.6818 108.847 46.9545 106.301 45.5C103.771 44.0303 101.824 41.9545 100.46 39.2727C99.0966 36.5758 98.4148 33.4015 98.4148 29.75C98.4148 26.1591 99.0966 23.0076 100.46 20.2955C101.839 17.5682 103.763 15.447 106.233 13.9318C108.703 12.4015 111.604 11.6364 114.938 11.6364C117.089 11.6364 119.119 11.9848 121.028 12.6818C122.953 13.3636 124.65 14.4242 126.119 15.8636C127.604 17.303 128.771 19.1364 129.619 21.3636C130.468 23.5758 130.892 26.2121 130.892 29.2727V31.7955H102.278V26.25H123.006C122.991 24.6742 122.65 23.2727 121.983 22.0455C121.316 20.803 120.384 19.8258 119.188 19.1136C118.006 18.4015 116.627 18.0455 115.051 18.0455C113.369 18.0455 111.892 18.4545 110.619 19.2727C109.347 20.0758 108.354 21.1364 107.642 22.4545C106.945 23.7576 106.589 25.1894 106.574 26.75V31.5909C106.574 33.6212 106.945 35.3636 107.688 36.8182C108.43 38.2576 109.468 39.3636 110.801 40.1364C112.134 40.8939 113.695 41.2727 115.483 41.2727C116.68 41.2727 117.763 41.1061 118.733 40.7727C119.703 40.4242 120.544 39.9167 121.256 39.25C121.968 38.5833 122.506 37.7576 122.869 36.7727L130.551 37.6364C130.066 39.6667 129.142 41.4394 127.778 42.9545C126.43 44.4545 124.703 45.6212 122.597 46.4545C120.491 47.2727 118.081 47.6818 115.369 47.6818Z" fill="#212121"/>
<path d="M0.545455 83.5227V76.4545H37.6818V83.5227H23.2955V123H14.9318V83.5227H0.545455ZM49.7727 123.705C47.5606 123.705 45.5682 123.311 43.7955 122.523C42.0379 121.72 40.6439 120.538 39.6136 118.977C38.5985 117.417 38.0909 115.492 38.0909 113.205C38.0909 111.235 38.4545 109.606 39.1818 108.318C39.9091 107.03 40.9015 106 42.1591 105.227C43.4167 104.455 44.8333 103.871 46.4091 103.477C48 103.068 49.6439 102.773 51.3409 102.591C53.3864 102.379 55.0455 102.189 56.3182 102.023C57.5909 101.841 58.5152 101.568 59.0909 101.205C59.6818 100.826 59.9773 100.242 59.9773 99.4545V99.3182C59.9773 97.6061 59.4697 96.2803 58.4545 95.3409C57.4394 94.4015 55.9773 93.9318 54.0682 93.9318C52.053 93.9318 50.4545 94.3712 49.2727 95.25C48.1061 96.1288 47.3182 97.1667 46.9091 98.3636L39.2273 97.2727C39.8333 95.1515 40.8333 93.3788 42.2273 91.9545C43.6212 90.5151 45.3258 89.4394 47.3409 88.7273C49.3561 88 51.5833 87.6364 54.0227 87.6364C55.7045 87.6364 57.3788 87.8333 59.0455 88.2273C60.7121 88.6212 62.2348 89.2727 63.6136 90.1818C64.9924 91.0758 66.0985 92.2955 66.9318 93.8409C67.7803 95.3864 68.2045 97.3182 68.2045 99.6364V123H60.2955V118.205H60.0227C59.5227 119.174 58.8182 120.083 57.9091 120.932C57.0152 121.765 55.8864 122.439 54.5227 122.955C53.1742 123.455 51.5909 123.705 49.7727 123.705ZM51.9091 117.659C53.5606 117.659 54.9924 117.333 56.2045 116.682C57.4167 116.015 58.3485 115.136 59 114.045C59.6667 112.955 60 111.765 60 110.477V106.364C59.7424 106.576 59.303 106.773 58.6818 106.955C58.0758 107.136 57.3939 107.295 56.6364 107.432C55.8788 107.568 55.1288 107.689 54.3864 107.795C53.6439 107.902 53 107.992 52.4545 108.068C51.2273 108.235 50.1288 108.508 49.1591 108.886C48.1894 109.265 47.4242 109.795 46.8636 110.477C46.303 111.144 46.0227 112.008 46.0227 113.068C46.0227 114.583 46.5758 115.727 47.6818 116.5C48.7879 117.273 50.197 117.659 51.9091 117.659ZM84.7045 76.4545V123H76.4773V76.4545H84.7045ZM100.665 112.045L100.642 102.114H101.96L114.506 88.0909H124.119L108.688 105.273H106.983L100.665 112.045ZM93.1648 123V76.4545H101.392V123H93.1648ZM115.074 123L103.71 107.114L109.256 101.318L124.915 123H115.074ZM157.193 97.3182L149.693 98.1364C149.481 97.3788 149.11 96.6667 148.58 96C148.064 95.3333 147.367 94.7955 146.489 94.3864C145.61 93.9773 144.534 93.7727 143.261 93.7727C141.549 93.7727 140.11 94.1439 138.943 94.8864C137.792 95.6288 137.223 96.5909 137.239 97.7727C137.223 98.7879 137.595 99.6136 138.352 100.25C139.125 100.886 140.398 101.409 142.17 101.818L148.125 103.091C151.428 103.803 153.883 104.932 155.489 106.477C157.11 108.023 157.928 110.045 157.943 112.545C157.928 114.742 157.284 116.682 156.011 118.364C154.754 120.03 153.004 121.333 150.761 122.273C148.519 123.212 145.943 123.682 143.034 123.682C138.761 123.682 135.322 122.788 132.716 121C130.11 119.197 128.557 116.689 128.057 113.477L136.08 112.705C136.443 114.28 137.216 115.47 138.398 116.273C139.58 117.076 141.117 117.477 143.011 117.477C144.966 117.477 146.534 117.076 147.716 116.273C148.913 115.47 149.511 114.477 149.511 113.295C149.511 112.295 149.125 111.47 148.352 110.818C147.595 110.167 146.413 109.667 144.807 109.318L138.852 108.068C135.504 107.371 133.027 106.197 131.42 104.545C129.814 102.879 129.019 100.773 129.034 98.2273C129.019 96.0758 129.602 94.2121 130.784 92.6364C131.981 91.0455 133.64 89.8182 135.761 88.9545C137.898 88.0758 140.36 87.6364 143.148 87.6364C147.239 87.6364 150.458 88.5076 152.807 90.25C155.17 91.9924 156.633 94.3485 157.193 97.3182Z" fill="#0671E0"/>
</svg>
