<svg width="21" height="22" viewBox="0 0 21 22" fill="none" xmlns="http://www.w3.org/2000/svg">
<circle cx="3" cy="3" r="3" transform="matrix(-1 0 0 1 13.5 8)" stroke="#717171" stroke-width="1.5"/>
<path d="M15.0001 3.9375L15.3751 3.28798L15.3751 3.28798L15.0001 3.9375ZM15.0001 18.0621L14.6251 17.4126L15.0001 18.0621ZM6.00004 18.0621L5.62504 18.7117H5.62504L6.00004 18.0621ZM6.00005 3.9375L6.37505 4.58702L6.00005 3.9375ZM7.42299 2.01508L6.69229 1.84601L7.42299 2.01508ZM3.81189 17.7402L3.63971 17.0102L3.81189 17.7402ZM2.903 17.503L3.47254 17.015L2.903 17.503ZM8.03927 20.695L8.22325 19.9679L8.03927 20.695ZM7.42304 19.9848L8.15376 19.8158L7.42304 19.9848ZM13.5771 19.9848L12.8464 19.8158L13.5771 19.9848ZM12.9609 20.695L13.1448 21.422L12.9609 20.695ZM18.097 17.503L17.5275 17.015L18.097 17.503ZM19.9437 7.70289L20.6518 7.45569L19.9437 7.70289ZM19.5936 8.68352L19.1167 8.10469L19.5936 8.68352ZM17.188 4.2595L17.0159 3.52952L17.188 4.2595ZM19.5936 13.3165L19.1167 13.8953L19.5936 13.3165ZM19.9437 14.2971L19.2356 14.0499L19.9437 14.2971ZM13.5772 2.01511L12.8465 2.18418L13.5772 2.01511ZM12.8465 2.18418C13.0723 3.16005 13.6879 4.04592 14.6251 4.58702L15.3751 3.28798C14.8127 2.96329 14.4439 2.43381 14.3079 1.84603L12.8465 2.18418ZM14.6251 4.58702C15.486 5.08408 16.4639 5.2008 17.3601 4.98949L17.0159 3.52952C16.4767 3.65663 15.8922 3.5865 15.3751 3.28798L14.6251 4.58702ZM20.6518 7.45569C20.2062 6.17937 19.5272 5.01337 18.6663 4.00871L17.5273 4.98471C18.2687 5.85004 18.8527 6.85328 19.2356 7.95008L20.6518 7.45569ZM19.25 11C19.25 10.3006 19.5682 9.67623 20.0705 9.26236L19.1167 8.10469C18.2834 8.79128 17.75 9.83367 17.75 11H19.25ZM20.0705 12.7376C19.5682 12.3238 19.25 11.6994 19.25 11H17.75C17.75 12.1663 18.2834 13.2087 19.1167 13.8953L20.0705 12.7376ZM18.6666 17.991C19.5273 16.9864 20.2063 15.8205 20.6518 14.5443L19.2356 14.0499C18.8528 15.1466 18.2688 16.1497 17.5275 17.015L18.6666 17.991ZM15.3751 18.7117C15.8922 18.4131 16.4768 18.343 17.016 18.4702L17.3603 17.0102C16.464 16.7988 15.4861 16.9155 14.6251 17.4126L15.3751 18.7117ZM14.3078 20.1538C14.4437 19.566 14.8126 19.0364 15.3751 18.7117L14.6251 17.4126C13.6877 17.9538 13.0721 18.8398 12.8464 19.8158L14.3078 20.1538ZM10.5 21.75C11.4117 21.75 12.2979 21.6363 13.1448 21.422L12.7769 19.9679C12.0493 20.152 11.2866 20.25 10.5 20.25V21.75ZM7.8553 21.4221C8.70216 21.6363 9.58835 21.75 10.5 21.75V20.25C9.71343 20.25 8.95081 20.152 8.22325 19.9679L7.8553 21.4221ZM5.62504 18.7117C6.18749 19.0364 6.55637 19.566 6.69233 20.1538L8.15376 19.8158C7.92802 18.8398 7.31238 17.9538 6.37504 17.4126L5.62504 18.7117ZM3.98406 18.4702C4.52327 18.343 5.10793 18.4131 5.62504 18.7117L6.37504 17.4126C5.51401 16.9155 4.53606 16.7988 3.63971 17.0102L3.98406 18.4702ZM0.348218 14.5443C0.793742 15.8205 1.47273 16.9864 2.33346 17.991L3.47254 17.015C2.73118 16.1498 2.14726 15.1466 1.7644 14.0499L0.348218 14.5443ZM1.75004 11C1.75004 11.6994 1.43185 12.3238 0.929528 12.7376L1.88336 13.8953C2.71668 13.2087 3.25004 12.1663 3.25004 11H1.75004ZM0.929529 9.26235C1.43185 9.67622 1.75004 10.3006 1.75004 11H3.25004C3.25004 9.83366 2.71668 8.79126 1.88336 8.10468L0.929529 9.26235ZM2.33375 4.00867C1.47288 5.01334 0.793793 6.17934 0.348219 7.45567L1.7644 7.95007C2.1473 6.85326 2.73131 5.85001 3.47279 4.98468L2.33375 4.00867ZM5.62505 3.28798C5.10798 3.58651 4.52337 3.65664 3.9842 3.5295L3.63994 4.98946C4.53623 5.20081 5.51409 5.0841 6.37505 4.58702L5.62505 3.28798ZM6.69229 1.84601C6.55629 2.43379 6.18743 2.96329 5.62505 3.28798L6.37505 4.58702C7.31227 4.04591 7.92788 3.16003 8.15368 2.18415L6.69229 1.84601ZM10.5 0.25C9.58832 0.25 8.7021 0.36366 7.85521 0.577959L8.22318 2.03213C8.95076 1.84802 9.71341 1.75 10.5 1.75V0.25ZM13.145 0.578005C12.298 0.363676 11.4118 0.25 10.5 0.25V1.75C11.2867 1.75 12.0494 1.84803 12.777 2.03217L13.145 0.578005ZM8.15368 2.18415C8.16929 2.11668 8.19574 2.06909 8.21626 2.04413C8.23389 2.02269 8.23703 2.02862 8.22318 2.03213L7.85521 0.577959C7.16401 0.752863 6.80711 1.3498 6.69229 1.84601L8.15368 2.18415ZM1.88336 8.10468C1.82248 8.05451 1.78709 8.00024 1.77289 7.96394C1.76095 7.93341 1.76974 7.93478 1.7644 7.95007L0.348219 7.45567C0.0822057 8.21766 0.49436 8.9038 0.929529 9.26235L1.88336 8.10468ZM3.63971 17.0102C3.57248 17.0261 3.51821 17.0235 3.48674 17.0162C3.45969 17.0099 3.46341 17.0044 3.47254 17.015L2.33346 17.991C2.79652 18.5314 3.48849 18.5871 3.98406 18.4702L3.63971 17.0102ZM8.22325 19.9679C8.2371 19.9714 8.23396 19.9773 8.21633 19.9559C8.19581 19.9309 8.16936 19.8833 8.15376 19.8158L6.69233 20.1538C6.80711 20.6501 7.16402 21.2471 7.8553 21.4221L8.22325 19.9679ZM12.8464 19.8158C12.8308 19.8833 12.8043 19.9309 12.7838 19.9559C12.7662 19.9773 12.763 19.9714 12.7769 19.9679L13.1448 21.422C13.8361 21.2471 14.193 20.6501 14.3078 20.1538L12.8464 19.8158ZM17.5275 17.015C17.5366 17.0043 17.5403 17.0098 17.5133 17.0161C17.4818 17.0235 17.4276 17.0261 17.3603 17.0102L17.016 18.4702C17.5116 18.587 18.2035 18.5314 18.6666 17.991L17.5275 17.015ZM19.2356 7.95008C19.2303 7.93479 19.2391 7.93343 19.2271 7.96395C19.2129 8.00025 19.1775 8.05452 19.1167 8.10469L20.0705 9.26236C20.5057 8.90381 20.9178 8.21767 20.6518 7.45569L19.2356 7.95008ZM1.7644 14.0499C1.76974 14.0652 1.76095 14.0666 1.77289 14.0361C1.78708 13.9998 1.82248 13.9455 1.88336 13.8953L0.929528 12.7376C0.494359 13.0962 0.0822046 13.7823 0.348218 14.5443L1.7644 14.0499ZM17.3601 4.98949C17.4273 4.97364 17.4816 4.97624 17.5131 4.98357C17.5401 4.98987 17.5364 4.99537 17.5273 4.98471L18.6663 4.00871C18.2033 3.46835 17.5114 3.41269 17.0159 3.52952L17.3601 4.98949ZM3.47279 4.98468C3.46366 4.99534 3.45994 4.98984 3.48699 4.98354C3.51845 4.97621 3.57271 4.97361 3.63994 4.98946L3.9842 3.5295C3.48867 3.41265 2.79678 3.4683 2.33375 4.00867L3.47279 4.98468ZM19.1167 13.8953C19.1775 13.9455 19.2129 13.9997 19.2271 14.036C19.2391 14.0666 19.2303 14.0652 19.2356 14.0499L20.6518 14.5443C20.9178 13.7823 20.5057 13.0962 20.0705 12.7376L19.1167 13.8953ZM14.3079 1.84603C14.1931 1.34983 13.8362 0.752915 13.145 0.578005L12.777 2.03217C12.7631 2.02866 12.7663 2.02273 12.7839 2.04417C12.8044 2.06913 12.8309 2.11672 12.8465 2.18418L14.3079 1.84603Z" fill="#717171"/>
</svg>
