<svg width="23" height="17" viewBox="0 0 23 17" fill="none" xmlns="http://www.w3.org/2000/svg">
<circle cx="3.40426" cy="3.40426" r="3.40426" transform="matrix(-1 0 0 1 15.1172 0.999878)" stroke="#212121" stroke-width="1.5"/>
<path d="M5.75537 12.8593C5.75537 12.1271 6.21567 11.4739 6.90524 11.2277V11.2277C10.0141 10.1174 13.4115 10.1174 16.5204 11.2277V11.2277C17.21 11.4739 17.6703 12.1271 17.6703 12.8593V13.9789C17.6703 14.9895 16.7752 15.7658 15.7748 15.6229L15.4412 15.5752C12.9682 15.2219 10.4575 15.2219 7.98442 15.5752L7.65087 15.6229C6.65044 15.7658 5.75537 14.9895 5.75537 13.9789V12.8593Z" stroke="#212121" stroke-width="1.5"/>
<path d="M16.8191 7.90264C18.2964 7.90264 19.4939 6.70511 19.4939 5.22787C19.4939 3.75064 18.2964 2.5531 16.8191 2.5531" stroke="#212121" stroke-width="1.5" stroke-linecap="round"/>
<path d="M19.7486 14.0049L20.0106 14.0424C20.7967 14.1547 21.5 13.5447 21.5 12.7507V11.871C21.5 11.2957 21.1383 10.7825 20.5965 10.589C20.0561 10.396 19.5045 10.2457 18.9468 10.1381" stroke="#212121" stroke-width="1.5" stroke-linecap="round"/>
<path d="M6.18088 7.90264C4.70364 7.90264 3.5061 6.70511 3.5061 5.22787C3.5061 3.75064 4.70364 2.5531 6.18088 2.5531" stroke="#212121" stroke-width="1.5" stroke-linecap="round"/>
<path d="M3.25143 14.0049L2.98935 14.0424C2.2033 14.1547 1.50003 13.5447 1.50003 12.7507V11.871C1.50003 11.2957 1.8617 10.7825 2.4035 10.589C2.94395 10.396 3.49549 10.2457 4.05322 10.1381" stroke="#212121" stroke-width="1.5" stroke-linecap="round"/>
</svg>
