<svg width="24" height="24" viewBox="0 0 24 24" fill="none" xmlns="http://www.w3.org/2000/svg">
<path d="M23.3333 4.8C19.8533 5.64 15.7733 6 12 6C8.22667 6 4.14667 5.64 0.666667 4.8L0 7.2C2.48 7.8 5.33333 8.196 8 8.4V24H10.6667V16.8H13.3333V24H16V8.4C18.6667 8.196 21.52 7.8 24 7.2L23.3333 4.8ZM12 4.8C13.4667 4.8 14.6667 3.72 14.6667 2.4C14.6667 1.08 13.4667 0 12 0C10.5333 0 9.33333 1.08 9.33333 2.4C9.33333 3.72 10.5333 4.8 12 4.8Z" fill="#717171"/>
<path d="M23.3333 4.8C19.8533 5.64 15.7733 6 12 6C8.22667 6 4.14667 5.64 0.666667 4.8L0 7.2C2.48 7.8 5.33333 8.196 8 8.4V24H10.6667V16.8H13.3333V24H16V8.4C18.6667 8.196 21.52 7.8 24 7.2L23.3333 4.8ZM12 4.8C13.4667 4.8 14.6667 3.72 14.6667 2.4C14.6667 1.08 13.4667 0 12 0C10.5333 0 9.33333 1.08 9.33333 2.4C9.33333 3.72 10.5333 4.8 12 4.8Z" fill="black" fill-opacity="0.2"/>
</svg>
