<svg width="23" height="17" viewBox="0 0 23 17" fill="none" xmlns="http://www.w3.org/2000/svg">
<circle cx="3.40426" cy="3.40426" r="3.40426" transform="matrix(-1 0 0 1 15.117 1)" stroke="#717171" stroke-width="1.5"/>
<path d="M5.75531 12.8594C5.75531 12.1272 6.21561 11.474 6.90517 11.2277V11.2277C10.0141 10.1174 13.4114 10.1174 16.5203 11.2277V11.2277C17.2099 11.474 17.6702 12.1272 17.6702 12.8594V13.979C17.6702 14.9896 16.7751 15.7659 15.7747 15.6229L15.4412 15.5753C12.9681 15.222 10.4574 15.222 7.98436 15.5753L7.65081 15.6229C6.65038 15.7659 5.75531 14.9896 5.75531 13.979V12.8594Z" stroke="#717171" stroke-width="1.5"/>
<path d="M16.8192 7.90277C18.2964 7.90277 19.4939 6.70523 19.4939 5.22799C19.4939 3.75076 18.2964 2.55322 16.8192 2.55322" stroke="#717171" stroke-width="1.5" stroke-linecap="round"/>
<path d="M19.7486 14.0051L20.0107 14.0425C20.7967 14.1548 21.5 13.5448 21.5 12.7508V11.8711C21.5 11.2958 21.1383 10.7826 20.5965 10.5891C20.0561 10.3961 19.5045 10.2458 18.9468 10.1382" stroke="#717171" stroke-width="1.5" stroke-linecap="round"/>
<path d="M6.18085 7.90277C4.70361 7.90277 3.50607 6.70523 3.50607 5.22799C3.50607 3.75076 4.70361 2.55322 6.18085 2.55322" stroke="#717171" stroke-width="1.5" stroke-linecap="round"/>
<path d="M3.2514 14.0051L2.98932 14.0425C2.20327 14.1548 1.5 13.5448 1.5 12.7508V11.8711C1.5 11.2958 1.86167 10.7826 2.40347 10.5891C2.94392 10.3961 3.49546 10.2458 4.05319 10.1382" stroke="#717171" stroke-width="1.5" stroke-linecap="round"/>
</svg>
